<svg width="128" height="128" viewBox="0 0 128 128" fill="none" xmlns="http://www.w3.org/2000/svg">
<rect width="128" height="128" fill="#0D6DF8" fill-opacity="0.08"/>
<path fill-rule="evenodd" clip-rule="evenodd" d="M57.7294 57.0526H70.6616C71.9396 57.0526 72.9756 56.0165 72.9756 54.7383C72.9756 54.4457 72.9214 54.1658 72.8223 53.9081C71.6001 49.8326 69.7124 45.5842 67.7192 42.0968C74.9217 43.6213 80.8021 48.736 83.3945 55.4858L83.423 55.5603C83.8768 56.7552 85.2132 57.3558 86.4079 56.902C87.6026 56.4481 88.2032 55.1115 87.7494 53.9167L87.7148 53.8262C83.9365 43.9888 74.3999 37 63.2255 37C48.7415 37 37 48.743 37 63.2287C37 74.4282 44.0175 83.9827 53.8867 87.7449C55.0809 88.2002 56.418 87.601 56.8731 86.4067C57.3283 85.2124 56.7293 83.8751 55.5351 83.4199C50.8739 81.643 46.9883 78.299 44.5198 74.0332H53.5355C54.8135 74.0332 55.8495 72.997 55.8495 71.7189C55.8495 70.4407 54.8135 69.4046 53.5355 69.4046H42.5238C41.9409 67.4476 41.628 65.3745 41.628 63.2287C41.628 61.0825 41.941 59.0094 42.5238 57.0526H53.0172C52.7281 58.6679 52.5331 60.3405 52.4539 62.0627L52.4461 62.2428C52.4425 62.3296 52.4433 62.409 52.4466 62.4814C52.4482 62.5158 52.4504 62.5473 52.4521 62.5707C52.4941 63.812 53.5134 64.8055 54.7648 64.8055C56.0428 64.8055 57.0788 63.7693 57.0788 62.4912C57.0788 62.433 57.0772 62.3795 57.0747 62.3302L57.0771 62.2752C57.1599 60.4726 57.3882 58.7276 57.7294 57.0526ZM58.8457 42.073C52.7271 43.3334 47.5537 47.182 44.52 52.424H54.1331C55.3336 48.4726 57.0397 44.9751 58.8457 42.073ZM63.2974 43.7008C64.7827 46.1966 66.277 49.277 67.4437 52.424H58.9987C60.1546 49.0796 61.7012 46.1282 63.2974 43.7008Z" fill="#646C76" style="mix-blend-mode:plus-darker"/>
<path fill-rule="evenodd" clip-rule="evenodd" d="M75.5733 91C84.0932 91 91 84.0924 91 75.5714C91 67.0504 84.0932 60.1427 75.5733 60.1427C67.0533 60.1427 60.1465 67.0504 60.1465 75.5714C60.1465 84.0924 67.0533 91 75.5733 91ZM83.3613 71.0357C84.2645 70.1314 84.2637 68.6661 83.3595 67.7628C82.4554 66.8595 80.9902 66.8603 80.087 67.7645L75.5626 72.2944L71.0324 67.7637C70.1287 66.8599 68.6636 66.8599 67.7599 67.7637C66.8562 68.6675 66.8562 70.1328 67.7599 71.0366L72.2919 75.5691L67.759 80.1074C66.8558 81.0117 66.8566 82.4771 67.7608 83.3804C68.665 84.2837 70.1301 84.2829 71.0333 83.3786L75.5644 78.842L80.1013 83.3795C81.005 84.2833 82.4701 84.2833 83.3738 83.3795C84.2775 82.4757 84.2775 81.0104 83.3738 80.1066L78.8351 75.5673L83.3613 71.0357Z" fill="#646C76" style="mix-blend-mode:plus-darker"/>
</svg>
