<svg width="32" height="32" viewBox="0 0 32 32" fill="none" xmlns="http://www.w3.org/2000/svg">
<rect width="32" height="32" rx="7" fill="#2688EB"/>
<path fill-rule="evenodd" clip-rule="evenodd" d="M7.95001 14.25C7.95001 9.80408 11.5541 6.19998 16 6.19998C17.342 6.19998 18.6045 6.52755 19.7147 7.10619C20.229 7.37421 20.8631 7.17461 21.1311 6.66037C21.3991 6.14612 21.1995 5.51197 20.6853 5.24395C19.2825 4.51282 17.6879 4.09998 16 4.09998C10.3943 4.09998 5.85001 8.64429 5.85001 14.25C5.85001 17.1282 7.17034 19.1208 8.5322 20.6066C9.01823 21.1369 9.53643 21.6297 9.9898 22.0608C10.153 22.216 10.3078 22.3632 10.4497 22.5013C10.9699 23.0077 11.3111 23.3868 11.5012 23.7101L11.6372 24.3897C11.7274 24.841 11.8061 25.2345 11.8962 25.558C11.9921 25.9025 12.1188 26.238 12.3386 26.553C12.6709 27.029 13.1282 27.4039 13.6601 27.6364C14.0121 27.7902 14.3659 27.8486 14.7226 27.8751C15.0574 27.9 15.4587 27.9 15.9189 27.9H16.081C16.5412 27.9 16.9426 27.9 17.2774 27.8751C17.6341 27.8486 17.9879 27.7902 18.3399 27.6364C18.8718 27.4039 19.3291 27.029 19.6614 26.553C19.8812 26.238 20.0079 25.9025 20.1038 25.558C20.1939 25.2345 20.2726 24.841 20.3628 24.3898L20.4987 23.7104C20.6341 23.4807 20.8533 23.2107 21.1763 22.8756C21.4302 22.6122 21.7057 22.3503 22.0136 22.0575C22.166 21.9125 22.3265 21.76 22.4962 21.596C23.4777 20.6473 24.6298 19.4454 25.3714 17.8404C25.6146 17.314 25.3851 16.6901 24.8586 16.4468C24.3322 16.2036 23.7083 16.4331 23.4651 16.9595C22.8963 18.1905 21.9875 19.167 21.0367 20.086C20.8975 20.2206 20.7534 20.3577 20.6085 20.4955C20.2812 20.8068 19.9502 21.1216 19.6642 21.4183C19.4019 21.6905 19.1402 21.9841 18.9145 22.3H17.05V20.0046L18.4059 18.9199C18.8588 18.5576 18.9322 17.8969 18.5699 17.444C18.2077 16.9912 17.5469 16.9178 17.0941 17.2801L16 18.1553L14.9059 17.2801C14.4531 16.9178 13.7924 16.9912 13.4301 17.444C13.0678 17.8969 13.1413 18.5576 13.5941 18.9199L14.95 20.0046V22.3H13.0852C12.7472 21.8272 12.3215 21.3927 11.9144 20.9965C11.7389 20.8257 11.5633 20.6587 11.3878 20.4918C10.9507 20.0761 10.5139 19.6608 10.0803 19.1877C8.90467 17.905 7.95001 16.3975 7.95001 14.25ZM13.9192 24.9946C13.8758 24.8387 13.8335 24.65 13.7818 24.4H16.0005H18.2182C18.1665 24.65 18.1243 24.8387 18.0808 24.9947C18.0177 25.2212 17.9707 25.3061 17.9394 25.351C17.8286 25.5096 17.6762 25.6346 17.4989 25.7121C17.4488 25.734 17.3562 25.7635 17.1218 25.7809C16.8741 25.7993 16.5515 25.8 16.0455 25.8H15.9545C15.4485 25.8 15.1259 25.7993 14.8783 25.7809C14.6438 25.7635 14.5512 25.734 14.5011 25.7121C14.3238 25.6346 14.1714 25.5096 14.0606 25.351C14.0293 25.3061 13.9823 25.2212 13.9192 24.9946ZM23.1916 6.56639C23.3545 6.07784 24.0455 6.07784 24.2084 6.56639L24.7573 8.21302C24.935 8.74639 25.3536 9.16494 25.887 9.34273L27.5336 9.8916C28.0221 10.0545 28.0221 10.7455 27.5336 10.9083L25.887 11.4572C25.3536 11.635 24.935 12.0536 24.7573 12.5869L24.2084 14.2336C24.0455 14.7221 23.3545 14.7221 23.1916 14.2336L22.6428 12.5869C22.465 12.0536 22.0464 11.635 21.513 11.4572L19.8664 10.9083C19.3779 10.7455 19.3779 10.0545 19.8664 9.8916L21.513 9.34273C22.0464 9.16494 22.465 8.74639 22.6428 8.21302L23.1916 6.56639Z" fill="white"/>
</svg>
